<!--?xml version="1.0" encoding="utf-8"?-->
<!-- Generator: Adobe Illustrator 19.2.1, SVG Export Plug-In . SVG Version: 6.00 Build 0)  -->
<svg version="1.1" id="_x31_0" xmlns="http://www.w3.org/2000/svg" xmlns:xlink="http://www.w3.org/1999/xlink" x="0px" y="0px" viewBox="0 0 512 512" style="width: 256px; height: 256px; opacity: 1;" xml:space="preserve">
<style type="text/css">
	.st0{fill:#374149;}
</style>
<g>
	<path class="st0" d="M15.058,376.182v0.164h481.879V57.178H15.058v318.035V376.182L15.058,376.182z M163.594,173.072l-2.617,14.824
		h-39.52l-2.984,16.906l-0.543,2.938h0.027l-0.027,0.16h28.879l4.77,0.024l-2.618,14.824h-33.648l-3.098,17.566l-0.559,2.992h0.031
		l-0.031,0.164h34l5.52,0.024l-2.618,14.828h-48.113l-8.051-0.028l15.031-85.246h48.098L163.594,173.072z M229.547,203.854
		l-2.57,14.582h-45.36l-7.695-0.027l2.57-14.582h45.438L229.547,203.854z M224.965,229.842l-2.574,14.586h-45.453l-7.598-0.028
		l2.57-14.586h45.574L224.965,229.842z M266.875,195.947l-0.562,3.168l-0.555,2.434c0.047-0.039,0.098-0.062,0.145-0.102
		l-0.043,0.222c2.442-2.074,5.122-3.672,8.031-4.789c2.91-1.118,5.805-1.676,8.684-1.676c3.508,0,6.531,0.641,9.062,1.914
		c2.363,1.195,4.242,3.078,5.722,5.531c0.066,0.125,0.18,0.21,0.242,0.34c0-0.004,0.004-0.004,0.004-0.004
		c0.035,0.042,0.074,0.074,0.102,0.121c3.129-2.793,6.277-4.813,9.449-6.05c3.172-1.234,6.715-1.852,10.629-1.852
		c3.114,0,5.922,0.477,8.43,1.434c2.503,0.961,4.48,2.317,5.93,4.074c2.102,2.554,3.394,5.289,3.882,8.203
		c0.481,2.918,0.422,6.09-0.183,9.519l-7.031,39.887h-13.434l-2.133-0.024l6.644-37.703c0.383-2.16,0.398-3.953,0.055-5.39
		c-0.344-1.438-0.942-2.598-1.782-3.477c-0.844-0.874-1.851-1.511-3.015-1.914c-1.172-0.398-2.352-0.598-3.547-0.598
		c-1.199,0-2.453,0.199-3.758,0.598c-1.313,0.402-2.539,1.019-3.684,1.855c-0.394,0.293-0.691,0.821-1.058,1.184
		c-0.289,0.289-0.57,0.602-0.84,0.938c-0.371,0.457-0.82,0.75-1.156,1.293c-0.262,0.418-0.332,1.039-0.547,1.504
		c-0.281,0.625-0.519,1.285-0.722,1.992c-0.168,0.582-0.485,1.012-0.598,1.652l-6.715,38.09H279.09l-2.133-0.024l6.649-37.703
		c0.378-2.16,0.398-3.953,0.05-5.39c-0.343-1.438-0.941-2.598-1.785-3.477c-0.84-0.874-1.848-1.511-3.012-1.914
		c-1.172-0.398-2.351-0.598-3.55-0.598c-1.199,0-2.45,0.199-3.758,0.598c-1.308,0.402-2.538,1.039-3.691,1.914
		c-1.156,0.879-2.172,2.039-3.066,3.477c-0.894,1.438-1.527,3.23-1.91,5.39l-6.649,37.727h-13.438l-2.129-0.024l11-62.378h13.019
		L266.875,195.947z M406.606,203.592l-11.622,9.878l-0.781,0.649c-1.286-1.754-2.618-3.008-4-3.766
		c-1.383-0.758-3.11-1.137-5.187-1.137c-3.672,0-6.867,1.355-9.578,4.074c-1.465,1.511-2.668,3.351-3.61,5.503
		c-0.938,2.161-1.703,4.914-2.293,8.266c-1.129,6.39-0.785,11.019,1.023,13.894c1.754,2.71,4.473,4.074,8.145,4.074
		c2.078,0,3.938-0.378,5.586-1.14c1.653-0.758,3.434-2.016,5.34-3.774l8.703,10.418c-3.305,2.875-6.734,5.012-10.293,6.41
		c-3.562,1.398-7.496,2.098-11.809,2.098c-3.114,0-6.242-0.48-9.382-1.438c-3.149-0.957-5.844-2.656-8.09-5.09
		c-2.242-2.438-3.886-5.711-4.914-9.824c-1.035-4.11-0.993-9.321,0.121-15.629c1.11-6.305,2.906-11.52,5.386-15.63
		c2.485-4.113,5.274-7.367,8.371-9.762s6.387-4.07,9.871-5.031c3.481-0.957,6.782-1.434,9.894-1.434
		c4.309,0,8.004,0.676,11.078,2.031c2.984,1.325,5.586,3.387,7.832,6.137C406.461,203.455,406.543,203.506,406.606,203.592z
		 M410.309,183.959l1.539-7.692l23.965-20.402c1.199-1.011,2.094-1.934,2.687-2.77c0.59-0.835,0.996-1.804,1.215-2.906
		c0.351-1.758,0.086-3.176-0.798-4.258c-0.878-1.078-2.367-1.617-4.461-1.617c-0.801,0-1.606,0.102-2.414,0.297
		c-0.817,0.199-1.578,0.531-2.293,0.992c-0.719,0.461-1.336,1.078-1.867,1.848c-0.528,0.774-0.906,1.726-1.133,2.871h-8.266
		l-1.445-0.028c0.43-2.144,1.218-4.062,2.375-5.746c1.16-1.695,2.598-3.137,4.304-4.324c1.707-1.188,3.61-2.09,5.703-2.707
		c2.09-0.618,4.286-0.922,6.578-0.922c2.344,0,4.45,0.317,6.313,0.954c1.867,0.641,3.394,1.543,4.586,2.707
		c1.187,1.168,2.008,2.598,2.469,4.293c0.461,1.691,0.477,3.598,0.054,5.707c-0.226,1.148-0.558,2.168-0.984,3.07
		c-0.43,0.902-0.969,1.773-1.606,2.605c-0.641,0.84-1.406,1.664-2.289,2.481c-0.887,0.813-1.867,1.683-2.954,2.606l-10.144,8.629
		l-7.782,6.461l0.184,0.004l-0.184,0.156h17.286l3.273,0.031l-1.539,7.688h-27.308L410.309,183.959z M443.668,336.225
		c0,6.722-5.45,12.171-12.168,12.171h-94.578c-6.726,0-12.171-5.449-12.171-12.171c0-6.719,5.445-12.168,12.171-12.168H431.5
		C438.218,324.057,443.668,329.506,443.668,336.225z" style="fill: rgb(75, 75, 75);"></path>
	<path class="st0" d="M512,399.236L512,399.236v-0.16H0v36.691c0,10.52,8.531,19.055,19.05,19.055h473.895
		c10.523,0,19.054-8.535,19.054-19.055v-36.308V399.236z" style="fill: rgb(75, 75, 75);"></path>
</g>
</svg>
